<?xml version="1.0" encoding="iso-8859-1"?>
<!-- Generator: Adobe Illustrator 14.0.0, SVG Export Plug-In . SVG Version: 6.00 Build 43363)  -->
<!DOCTYPE svg PUBLIC "-//W3C//DTD SVG 1.1//EN" "http://www.w3.org/Graphics/SVG/1.1/DTD/svg11.dtd">
<svg version="1.1" xmlns="http://www.w3.org/2000/svg" xmlns:xlink="http://www.w3.org/1999/xlink" x="0px" y="0px" width="1000px"
	 height="500px" viewBox="0 0 1000 500" style="enable-background:new 0 0 1000 500;" xml:space="preserve">
<g id="water">
	<rect x="-79" y="303" style="fill:#1E3D84;" width="1098" height="285"/>
</g>
<g id="water_x5F_shadow">
	<polygon style="opacity:0.3;fill:#010102;" points="274,303 687,300 715,369 641,408 538,377 433,438 320,408 	"/>
</g>
<g id="background_x5F_mountain">
	<polygon style="fill:#28395B;" points="233.256,225.683 288.224,188.874 335.35,197.186 434.003,172.739 534.899,233.269 
		639.435,200.736 747.126,247.165 747.975,305.158 223.987,309.827 	"/>
	<polygon style="opacity:0.3;fill:#FCFCFC;" points="288.224,188.874 301,204 335.35,197.186 	"/>
	<polygon style="opacity:0.3;fill:#FCFCFC;" points="335.35,197.186 376,196.437 434.003,172.739 	"/>
	<polygon style="opacity:0.3;fill:#FCFCFC;" points="434.003,172.739 451.5,211 534.899,233.269 	"/>
	<polygon style="opacity:0.3;fill:#FCFCFC;" points="639.435,200.736 755,268 755,250 	"/>
</g>
<g id="background_x5F_mountain_x5F_highlights">
</g>
<g id="right_x5F_mountain">
	<polygon style="fill:#0D1935;" points="508,319 628,287 689,241.283 727.463,238.261 892,104 970,88 1008,44 1019,612 858,512 
		735,404 685,394 628,355 	"/>
	<g id="reflection">
		<defs>
			<polygon id="SVGID_1_" points="1039,318 1019,612 858,512 735,404 685,394 628,355 508,319 			"/>
		</defs>
		<clipPath id="SVGID_2_">
			<use xlink:href="#SVGID_1_"  style="overflow:visible;"/>
		</clipPath>
		<rect x="390" y="318" style="opacity:0.3;clip-path:url(#SVGID_2_);fill:#FCFCFC;" width="693" height="294"/>
	</g>
</g>
<g id="right_x5F_mountain_x5F_highlights">
	<polygon style="opacity:0.3;fill:#F7F8F9;" points="1008,44 927,136 1027,97 	"/>
	<polygon style="opacity:0.3;fill:#F7F8F9;" points="927,136 915,155 866,155 	"/>
	<polygon style="opacity:0.3;fill:#F7F8F9;" points="866,155 866,233.269 809,256.5 	"/>
	<polygon style="opacity:0.3;fill:#F7F8F9;" points="726,274 755,282 809,256.5 	"/>
	<polygon style="opacity:0.3;fill:#F7F8F9;" points="726,274 683.999,318.669 726,390 655.998,318.722 	"/>
	<polygon style="opacity:0.3;fill:#FCFCFC;" points="508,319 628,287 618,303 	"/>
	<polygon style="opacity:0.3;fill:#FCFCFC;" points="689,241.283 727.463,238.261 892,104 743,250.5 	"/>
	<polygon style="opacity:0.3;fill:#FCFCFC;" points="508,319 619,332 628,355 	"/>
	<polygon style="opacity:0.3;fill:#FCFCFC;" points="685,394 735,404 847.326,502.628 866,502.628 755,400 	"/>
	<polygon style="opacity:0.3;fill:#FCFCFC;" points="892,502.628 883,430 821.403,406.001 767.5,385 755,394 816,416 	"/>
</g>
<g id="front_x5F_mountain">
	<g>
		<polygon style="fill:#0D1935;" points="0,0.882 239,144 281,216 376,297 528,355 375,416 271,500 -52,525 		"/>
	</g>
</g>
<g id="front_x5F_mountain_x5F_reflection">
	<g>
		<defs>
			<polyline id="SVGID_3_" points="274,500 375,416 528,356 -74,355 -79,546 274,500 			"/>
		</defs>
		<clipPath id="SVGID_4_">
			<use xlink:href="#SVGID_3_"  style="overflow:visible;"/>
		</clipPath>
		<rect x="-74" y="355" style="opacity:0.2;clip-path:url(#SVGID_4_);fill:#F9F9F9;" width="615" height="233"/>
	</g>
</g>
<g id="front_x5F_mountain_x5F_highlights">
	<polygon style="opacity:0.3;fill:#F7F8F9;" points="180,512 216,458 288,422 376,356.5 291,292 217,256.5 175,202 129,180 -8,-11 
		94,180 141,216 184,267.705 260,297 274,355 249,416 184,447 178,485 109,512 	"/>
	<polygon style="opacity:0.31;fill:#F7F8F9;" points="376,297 281,216 344,297 	"/>
	<polyline style="opacity:0.3;fill:#F7F8F9;" points="0,0.882 0,0.882 239,144 192,138 0,0.882 	"/>
	<polygon style="opacity:0.3;fill:#F7F8F9;" points="281,216 239,144 239,201 	"/>
	<polygon style="display:none;opacity:0.3;fill:#F7F8F9;" points="376,297 528,356 375,416 489,356.5 	"/>
	<polygon style="opacity:0.3;fill:#F7F8F9;" points="274,500 375,416 345,416 	"/>
	<polyline style="opacity:0.3;fill:#F9F9F9;" points="375,416 528,355 376,297 470,355 375,416 	"/>
</g>
</svg>
